HIERARCHY
ROOT Hips
{
	OFFSET 0.000000 89.005402 0.000000
	CHANNELS 6 Xposition Yposition Zposition Xrotation Yrotation Zrotation
	JOINT Spine
	{
		OFFSET 0.116900 10.681000 0.373400
		CHANNELS 3 Xrotation Yrotation Zrotation
		JOINT Spine1
		{
			OFFSET 0.000000 13.840401 0.053500
			CHANNELS 3 Xrotation Yrotation Zrotation
			JOINT Spine2
			{
				OFFSET 0.000000 14.712700 -0.366200
				CHANNELS 3 Xrotation Yrotation Zrotation
				JOINT Neck
				{
					OFFSET 0.000000 35.415497 -3.314200
					CHANNELS 3 Xrotation Yrotation Zrotation
					JOINT Head
					{
						OFFSET 0.000000 16.899200 1.218300
						CHANNELS 3 Xrotation Yrotation Zrotation
						JOINT HeadTop_End
						{
							OFFSET 0.000000 22.206207 2.192500
							CHANNELS 3 Xrotation Yrotation Zrotation
							End Site
							{
								OFFSET 0.000000 22.314178 0.000000
							}
						}
					}
				}
				JOINT LeftShoulder
				{
					OFFSET 12.896400 26.716293 -4.548400
					CHANNELS 3 Xrotation Yrotation Zrotation
					JOINT LeftArm
					{
						OFFSET 19.027000 -4.857010 -1.718400
						CHANNELS 3 Xrotation Yrotation Zrotation
						JOINT LeftForeArm
						{
							OFFSET 24.179897 0.000000 0.000000
							CHANNELS 3 Xrotation Yrotation Zrotation
							JOINT LeftHand
							{
								OFFSET 27.156403 0.000000 0.000000
								CHANNELS 3 Xrotation Yrotation Zrotation
								JOINT LeftHandIndex1
								{
									OFFSET 16.441200 0.000000 0.000000
									CHANNELS 3 Xrotation Yrotation Zrotation
									JOINT LeftHandIndex2
									{
										OFFSET 4.821899 0.000000 0.000000
										CHANNELS 3 Xrotation Yrotation Zrotation
										JOINT LeftHandIndex3
										{
											OFFSET 6.386497 0.000000 0.000000
											CHANNELS 3 Xrotation Yrotation Zrotation
											JOINT LeftHandIndex4
											{
												OFFSET 5.188988 0.000000 0.000000
												CHANNELS 3 Xrotation Yrotation Zrotation
												End Site
												{
													OFFSET -0.178703 5.185913 0.000177
												}
											}
										}
									}
								}
								JOINT LeftHandThumb1
								{
									OFFSET 6.534897 -5.032593 5.900300
									CHANNELS 3 Xrotation Yrotation Zrotation
									JOINT LeftHandThumb2
									{
										OFFSET 3.818176 -2.204422 2.204423
										CHANNELS 3 Xrotation Yrotation Zrotation
										JOINT LeftHandThumb3
										{
											OFFSET 3.252098 -1.877594 1.877601
											CHANNELS 3 Xrotation Yrotation Zrotation
											JOINT LeftHandThumb4
											{
												OFFSET 5.251778 -3.032120 3.032117
												CHANNELS 3 Xrotation Yrotation Zrotation
												End Site
												{
													OFFSET 0.000023 6.780014 0.000000
												}
											}
										}
									}
								}
							}
						}
					}
				}
				JOINT RightShoulder
				{
					OFFSET -12.896300 26.716293 -4.548400
					CHANNELS 3 Xrotation Yrotation Zrotation
					JOINT RightArm
					{
						OFFSET -19.027000 -4.857010 -1.718400
						CHANNELS 3 Xrotation Yrotation Zrotation
						JOINT RightForeArm
						{
							OFFSET -24.179897 0.000000 0.000000
							CHANNELS 3 Xrotation Yrotation Zrotation
							JOINT RightHand
							{
								OFFSET -27.156403 0.000000 0.000000
								CHANNELS 3 Xrotation Yrotation Zrotation
								JOINT RightHandThumb1
								{
									OFFSET -6.591202 -4.852203 5.988100
									CHANNELS 3 Xrotation Yrotation Zrotation
									JOINT RightHandThumb2
									{
										OFFSET -3.818176 -2.204422 2.204423
										CHANNELS 3 Xrotation Yrotation Zrotation
										JOINT RightHandThumb3
										{
											OFFSET -3.252098 -1.877594 1.877601
											CHANNELS 3 Xrotation Yrotation Zrotation
											JOINT RightHandThumb4
											{
												OFFSET -5.251778 -3.032120 3.032117
												CHANNELS 3 Xrotation Yrotation Zrotation
												End Site
												{
													OFFSET -0.000023 6.780014 0.000000
												}
											}
										}
									}
								}
								JOINT RightHandIndex1
								{
									OFFSET -16.029404 0.000000 0.000000
									CHANNELS 3 Xrotation Yrotation Zrotation
									JOINT RightHandIndex2
									{
										OFFSET -5.213303 0.000000 0.000000
										CHANNELS 3 Xrotation Yrotation Zrotation
										JOINT RightHandIndex3
										{
											OFFSET -6.386528 0.000000 0.000000
											CHANNELS 3 Xrotation Yrotation Zrotation
											JOINT RightHandIndex4
											{
												OFFSET -5.189026 0.000000 0.000000
												CHANNELS 3 Xrotation Yrotation Zrotation
												End Site
												{
													OFFSET 0.236702 5.183624 0.001972
												}
											}
										}
									}
								}
							}
						}
					}
				}
			}
		}
	}
	JOINT LeftUpLeg
	{
		OFFSET 14.073000 -7.904099 -1.463000
		CHANNELS 3 Xrotation Yrotation Zrotation
		JOINT LeftLeg
		{
			OFFSET -0.109806 -34.073280 4.093200
			CHANNELS 3 Xrotation Yrotation Zrotation
			JOINT LeftFoot
			{
				OFFSET 0.109806 -29.899420 -6.319000
				CHANNELS 3 Xrotation Yrotation Zrotation
				JOINT LeftToeBase
				{
					OFFSET 1.551100 -14.988700 20.535801
					CHANNELS 3 Xrotation Yrotation Zrotation
					JOINT LeftToe_End
					{
						OFFSET 0.221200 0.570800 13.248301
						CHANNELS 3 Xrotation Yrotation Zrotation
						End Site
						{
							OFFSET 0.000000 13.262435 0.000000
						}
					}
				}
			}
		}
	}
	JOINT RightUpLeg
	{
		OFFSET -13.839300 -7.904099 -1.463000
		CHANNELS 3 Xrotation Yrotation Zrotation
		JOINT RightLeg
		{
			OFFSET 0.109694 -34.073219 4.093300
			CHANNELS 3 Xrotation Yrotation Zrotation
			JOINT RightFoot
			{
				OFFSET -0.109694 -29.899384 -6.319200
				CHANNELS 3 Xrotation Yrotation Zrotation
				JOINT RightToeBase
				{
					OFFSET -1.551100 -14.988700 20.535801
					CHANNELS 3 Xrotation Yrotation Zrotation
					JOINT RightToe_End
					{
						OFFSET -0.221200 0.570900 13.248299
						CHANNELS 3 Xrotation Yrotation Zrotation
						End Site
						{
							OFFSET 0.000000 13.262440 0.000000
						}
					}
				}
			}
		}
	}
}
MOTION
Frames: 4
Frame Time: 0.033333
0.426851 49.472626 8.266407 -1.024800 15.149173 3.079849 5.755926 -3.019195 0.258945 11.484292 -5.730088 -0.006435 11.484289 -5.730084 -0.006436 1.153003 -8.919924 7.707236 -10.700832 -17.034261 19.094453 -0.000001 -0.000002 0.000001 2.025682 -23.881809 -2.093920 -53.800604 -28.487126 -46.302385 67.425708 -26.000194 41.091016 -3.835040 -3.708318 49.406122 0.156856 4.522970 2.960521 2.285542 0.829782 -27.508834 4.527274 -3.018303 1.964667 0.000000 0.000001 -0.000002 3.172314 8.686848 -1.689432 3.540551 26.210667 11.967222 0.603145 3.342700 2.083022 -0.000001 0.000003 0.000003 0.524547 18.554902 10.135870 -41.189510 -12.623708 32.548918 95.026803 35.244370 -96.802666 -6.999134 -2.595603 -30.242264 6.723735 -0.228293 -26.072700 4.747670 -32.226950 -12.989398 -6.530445 13.750714 4.317121 -0.000000 -0.000000 -0.000001 0.422029 -9.282441 7.297205 1.701289 1.329836 2.768321 4.459498 4.418471 -6.192932 0.000001 -0.000001 0.000004 -86.091331 9.441285 -27.206119 71.205849 26.955920 -0.903445 13.765399 0.088500 15.956463 -1.920748 0.000009 -0.000002 0.000000 0.000001 -0.000000 -110.038623 -19.423605 2.856573 67.811942 -31.104282 -8.076855 40.201991 -1.320444 -9.698884 0.260451 0.000003 0.000004 0.000001 -0.000000 0.000001 
0.435136 49.480591 8.299271 -0.932408 15.134717 3.080076 5.765667 -3.025816 0.277632 11.505003 -5.724738 0.035366 11.505001 -5.724737 0.035366 1.335822 -8.882716 7.719361 -10.648506 -16.919907 19.012318 -0.000002 -0.000002 0.000000 2.014239 -23.707616 -2.098160 -53.730096 -28.413971 -46.301108 67.565577 -26.317042 41.558890 -3.843817 -3.545190 49.187928 0.156858 4.522988 2.960544 2.285535 0.829769 -27.508850 4.527274 -3.018285 1.964658 0.000000 0.000001 -0.000001 3.172317 8.686868 -1.689425 3.540551 26.210663 11.967203 0.603145 3.342707 2.083024 -0.000002 0.000002 0.000002 0.507116 18.563611 10.263244 -41.042381 -12.313070 32.699251 94.910956 35.298875 -96.574640 -7.120465 -3.789374 -32.707498 6.723726 -0.228304 -26.072695 4.747652 -32.226923 -12.989406 -6.530432 13.750697 4.317118 -0.000001 0.000001 -0.000000 0.422022 -9.282448 7.297200 1.701289 1.329838 2.768327 4.459494 4.418469 -6.192930 0.000001 -0.000000 0.000005 -86.186086 9.412732 -27.222890 71.236599 26.999026 -0.918727 13.734891 0.084439 15.915879 -1.890563 -0.000008 -0.000013 0.000000 -0.000000 -0.000000 -110.119076 -19.509655 2.832909 67.856659 -31.051488 -8.068935 40.297235 -1.309318 -9.695727 0.197658 0.000001 0.000004 -0.000000 -0.000000 0.000001 
0.447776 49.491814 8.349154 -0.798141 15.131878 3.070831 5.760871 -3.035272 0.291484 11.496361 -5.723099 0.067070 11.496353 -5.723100 0.067070 1.472386 -8.805082 7.774453 -10.693051 -16.694775 19.014031 -0.000001 -0.000000 -0.000000 2.003297 -23.594733 -2.119176 -53.611172 -28.253986 -46.252030 67.757833 -26.647753 42.078921 -3.835271 -3.410657 49.015555 0.156868 4.522988 2.960530 2.285544 0.829782 -27.508841 4.527276 -3.018297 1.964665 0.000000 0.000001 0.000001 3.172322 8.686875 -1.689428 3.540543 26.210670 11.967227 0.603151 3.342704 2.083019 0.000000 -0.000002 0.000000 0.506254 18.660985 10.262279 -41.064672 -11.967579 32.769222 94.528835 35.714441 -96.069691 -7.379524 -5.014064 -35.156941 6.723738 -0.228303 -26.072702 4.747642 -32.226926 -12.989429 -6.530415 13.750708 4.317112 -0.000001 -0.000001 0.000001 0.422022 -9.282447 7.297201 1.701291 1.329839 2.768332 4.459489 4.418468 -6.192940 0.000000 -0.000001 -0.000001 -86.316912 9.377279 -27.252052 71.282129 27.045534 -0.942712 13.687528 0.079385 15.870558 -1.871852 -0.000003 -0.000002 0.000000 -0.000000 0.000000 -110.238379 -19.598459 2.793291 67.881357 -30.984060 -8.069301 40.445734 -1.278182 -9.650906 0.124323 0.000007 0.000006 0.000001 0.000000 0.000002 
0.451202 49.506363 8.394964 -0.641057 15.144044 3.075363 5.751101 -3.029189 0.299969 11.477211 -5.703527 0.082999 11.477207 -5.703526 0.082998 1.516538 -8.725251 7.843233 -10.816748 -16.472973 19.074869 -0.000000 0.000002 -0.000002 1.993287 -23.538989 -2.153152 -53.545155 -28.082231 -46.246576 67.986890 -26.940655 42.592592 -3.795300 -3.351137 48.926356 0.156863 4.522994 2.960526 2.285529 0.829761 -27.508841 4.527280 -3.018284 1.964662 -0.000000 0.000000 0.000002 3.172318 8.686862 -1.689429 3.540542 26.210660 11.967209 0.603136 3.342689 2.083023 0.000001 0.000001 0.000003 0.516443 18.755377 10.182327 -41.240679 -11.683042 32.790826 94.093984 36.025321 -95.527224 -7.747239 -6.164653 -37.486083 6.723729 -0.228303 -26.072693 4.747648 -32.226929 -12.989412 -6.530434 13.750691 4.317134 0.000001 0.000001 -0.000000 0.422025 -9.282445 7.297216 1.701279 1.329864 2.768328 4.459502 4.418446 -6.192938 0.000000 -0.000002 -0.000000 -86.448270 9.365199 -27.272110 71.300843 27.064582 -0.973774 13.648813 0.075394 15.840775 -1.870619 0.000001 0.000009 -0.000000 0.000000 0.000000 -110.377039 -19.657262 2.774623 67.865265 -30.943967 -8.089587 40.515152 -1.250267 -9.601394 0.104586 0.000004 0.000005 0.000000 -0.000000 0.000000 
